HIERARCHY
ROOT root
{
	OFFSET 0.000000 0.000000 0.000000
	CHANNELS 6 Xposition Yposition Zposition Zrotation Yrotation Xrotation
	JOINT lhip
	{
		OFFSET 0.058581 -0.082280 -0.017664
		CHANNELS 3 Zrotation Yrotation Xrotation
		JOINT lknee
		{
			OFFSET 0.043451 -0.386469 0.008037
			CHANNELS 3 Zrotation Yrotation Xrotation
			JOINT lankle
			{
				OFFSET -0.014790 -0.426874 -0.037428
				CHANNELS 3 Zrotation Yrotation Xrotation
				JOINT ltoe
				{
					OFFSET 0.041054 -0.060286 0.122042
					CHANNELS 3 Zrotation Yrotation Xrotation
					End Site
					{
						OFFSET 0.000000 0.000000 0.000000
					}
				}
			}
		}
	}
	JOINT rhip
	{
		OFFSET -0.060310 -0.090513 -0.013543
		CHANNELS 3 Zrotation Yrotation Xrotation
		JOINT rknee
		{
			OFFSET -0.043257 -0.383688 -0.004843
			CHANNELS 3 Zrotation Yrotation Xrotation
			JOINT rankle
			{
				OFFSET 0.019056 -0.420046 -0.034562
				CHANNELS 3 Zrotation Yrotation Xrotation
				JOINT rtoe
				{
					OFFSET -0.034840 -0.062106 0.130323
					CHANNELS 3 Zrotation Yrotation Xrotation
					End Site
					{
						OFFSET 0.000000 0.000000 0.000000
					}
				}
			}
		}
	}
	JOINT lowerback
	{
		OFFSET 0.004439 0.124404 -0.038385
		CHANNELS 3 Zrotation Yrotation Xrotation
		JOINT upperback
		{
			OFFSET 0.004488 0.137956 0.026820
			CHANNELS 3 Zrotation Yrotation Xrotation
			JOINT chest
			{
				OFFSET -0.002265 0.056032 0.002855
				CHANNELS 3 Zrotation Yrotation Xrotation
				JOINT lowerneck
				{
					OFFSET -0.013390 0.211636 -0.033468
					CHANNELS 3 Zrotation Yrotation Xrotation
					JOINT upperneck
					{
						OFFSET 0.010113 0.088937 0.050410
						CHANNELS 3 Zrotation Yrotation Xrotation
						End Site
						{
							OFFSET 0.000000 0.000000 0.000000
						}
					}
				}
				JOINT lclavicle
				{
					OFFSET 0.071702 0.114000 -0.018898
					CHANNELS 3 Zrotation Yrotation Xrotation
					JOINT lshoulder
					{
						OFFSET 0.122921 0.045205 -0.019046
						CHANNELS 3 Zrotation Yrotation Xrotation
						JOINT lelbow
						{
							OFFSET 0.255332 -0.015649 -0.022946
							CHANNELS 3 Zrotation Yrotation Xrotation
							JOINT lwrist
							{
								OFFSET 0.265709 0.012698 -0.007375
								CHANNELS 3 Zrotation Yrotation Xrotation
								End Site
								{
									OFFSET 0.000000 0.000000 0.000000
								}
							}
						}
					}
				}
				JOINT rclavicle
				{
					OFFSET -0.082954 0.112472 -0.023707
					CHANNELS 3 Zrotation Yrotation Xrotation
					JOINT rshoulder
					{
						OFFSET -0.113228 0.046853 -0.008472
						CHANNELS 3 Zrotation Yrotation Xrotation
						JOINT relbow
						{
							OFFSET -0.260127 -0.014369 -0.031269
							CHANNELS 3 Zrotation Yrotation Xrotation
							JOINT rwrist
							{
								OFFSET -0.269108 0.006794 -0.006027
								CHANNELS 3 Zrotation Yrotation Xrotation
								End Site
								{
									OFFSET 0.000000 0.000000 0.000000
								}
							}
						}
					}
				}
			}
		}
	}
}
MOTION
Frames: 13
Frame Time: 0.033333
0.205881 0.288234 0.973535 -98.078622 0.446825 86.420538 11.299160 5.777584 2.750268 -4.358469 9.469769 6.649437 -0.876328 6.337653 -11.499277 0.000000 -0.000000 0.000000 -5.662984 -6.691230 3.314327 1.702267 -8.339453 7.172869 0.408697 -3.580629 -13.924405 0.000000 -0.000000 0.000000 -2.109607 1.417311 1.055857 0.951552 -2.208943 11.304307 1.223532 -1.789430 0.254468 -0.652971 16.100931 2.814922 -3.618416 17.308457 -1.540323 -26.134461 1.559247 5.100789 -50.424733 -1.156470 20.676774 -152.371884 -80.741636 166.781821 10.041094 -5.587947 -31.754829 24.170418 -0.162295 6.198676 51.794277 5.142106 22.783622 -168.455134 85.872885 -163.025655 6.102870 10.321308 -39.620960 
0.205759 0.288169 0.973270 -98.026341 0.403973 86.438601 11.254140 5.696921 2.770786 -4.426377 9.190961 6.539492 -0.853471 6.590526 -11.476058 0.000000 -0.000000 0.000000 -5.773336 -6.557317 3.361714 1.882045 -8.166875 7.097067 0.628700 -3.925836 -13.949391 0.000000 -0.000000 0.000000 -2.072767 1.299694 1.039252 0.621919 -2.091645 10.932189 1.399936 -1.757341 0.737328 -0.456384 16.209241 2.339276 -3.693723 17.594432 -0.844597 -25.934720 1.585864 5.022180 -50.707530 -1.106024 20.508877 -152.412501 -80.689498 167.136044 9.977379 -5.652503 -31.735782 24.038210 0.092685 6.459285 51.931796 5.244968 22.683155 -166.326798 85.737190 -160.579055 6.254898 10.402668 -39.679343 
0.205488 0.288299 0.973269 -98.072717 0.407970 86.361940 11.319510 5.794243 2.901747 -4.477758 9.113988 6.497164 -0.936435 6.608828 -11.407978 0.000000 -0.000000 0.000000 -5.762154 -6.369637 3.464707 1.887111 -8.202469 7.097767 0.692327 -3.949688 -13.942416 0.000000 -0.000000 0.000000 -1.931855 1.351643 1.189521 0.443573 -1.874251 10.831910 1.282292 -1.740469 0.706032 -0.589963 16.019594 2.327022 -3.468588 17.244569 -0.880914 -25.739566 1.508341 5.122039 -50.619969 -1.044092 20.468758 -153.419919 -80.347743 168.434130 9.971101 -5.512558 -31.588352 23.955166 0.129295 6.331222 52.318046 5.054722 22.689271 -167.959983 85.843624 -162.226755 5.859568 10.395851 -39.779781 
0.205188 0.287463 0.973507 -97.975586 0.473366 86.226751 11.422148 5.577164 2.670402 -4.594864 8.657007 7.230021 -0.965967 6.906108 -11.727446 0.000000 -0.000000 0.000000 -5.946609 -6.252749 3.524630 2.132492 -8.179500 7.314317 0.872972 -3.876043 -14.086192 0.000000 -0.000000 0.000000 -1.737564 1.248805 1.514982 0.299206 -1.845271 10.618280 1.185352 -1.673620 0.796361 -0.788898 15.777053 2.053777 -3.130639 16.696438 -0.879129 -25.458066 1.624236 5.079061 -50.865723 -0.815763 20.673173 -154.082207 -79.501152 169.234338 10.857809 -5.276404 -31.403425 23.733790 0.200005 6.205651 52.486434 4.766251 22.741585 -171.562876 85.710369 -166.076970 5.088024 9.978574 -39.793954 
0.205633 0.286966 0.973687 -98.071873 0.529185 86.266943 11.443264 5.387895 2.065566 -4.601733 8.705351 8.364735 -0.933538 7.106278 -12.184979 0.000000 -0.000000 0.000000 -6.033639 -5.887209 3.186294 2.289645 -8.353908 7.813244 0.971388 -3.769889 -14.308911 0.000000 -0.000000 0.000000 -1.569074 1.254028 1.771290 0.309812 -1.676747 10.312745 1.041155 -1.685396 0.903853 -0.681096 15.566765 1.846508 -3.001636 16.356130 -0.686116 -25.309217 1.842219 5.039296 -51.042612 -0.788201 20.726180 -154.446101 -79.066505 170.213662 10.834509 -5.451450 -31.296168 23.572847 0.001646 6.034312 52.402427 4.631283 22.791148 -178.328398 85.618685 -172.680135 4.931561 10.301243 -40.237510 
0.206473 0.285663 0.974140 -98.487363 0.342051 86.014292 11.590111 5.029796 0.877424 -5.143308 8.761639 11.550878 -1.106443 7.407439 -13.412002 0.000000 -0.000000 0.000000 -6.369949 -5.380903 2.682689 2.162905 -8.192908 9.100027 0.956458 -3.652684 -14.913604 0.000000 -0.000000 0.000000 -1.592700 1.439565 2.453695 0.328951 -1.469533 10.023857 0.781685 -1.590264 0.945211 -0.863697 14.980498 1.282518 -2.560911 14.598126 -0.000684 -25.111746 2.130777 5.205638 -51.008150 -0.667340 20.796870 -155.440310 -78.352641 171.534546 10.848505 -5.863258 -30.865929 23.636845 -0.111470 5.951344 51.980005 4.459673 22.712768 173.242401 85.403881 179.172366 4.737749 10.825826 -41.357930 
0.208861 0.282083 0.974343 -99.118080 0.335619 85.827002 11.706549 3.723724 -1.532764 -5.476187 8.299030 16.924402 -0.781199 7.962141 -14.526986 0.000000 -0.000000 0.000000 -6.966677 -4.928322 1.446006 2.643336 -7.954317 11.277295 0.924694 -3.580270 -15.625970 0.000000 -0.000000 0.000000 -0.985117 1.721713 3.598254 0.269065 -1.117175 9.365401 0.487895 -1.610828 0.974149 -0.602663 14.014476 0.661922 -2.364597 13.938418 0.968798 -25.266182 2.020436 5.455898 -51.067099 -0.348819 20.702117 -157.203934 -78.026849 173.561763 10.892497 -5.859516 -30.167232 23.434863 0.084298 5.889977 51.580219 4.237803 22.560153 169.243655 85.262810 175.113008 4.618755 11.013309 -41.365740 
0.211813 0.276329 0.973433 -100.604645 0.156227 85.400677 11.800868 2.050021 -4.247614 -6.312660 6.982078 23.723323 -0.457539 8.404434 -15.339306 0.000000 -0.000000 0.000000 -7.698064 -4.304347 -0.636636 2.692452 -7.000016 15.102933 0.964179 -3.507882 -17.170176 0.000000 -0.000000 0.000000 -0.427832 2.021467 4.743557 0.197781 -0.587918 9.138320 0.261874 -1.389906 1.142432 -0.281033 12.072528 0.178291 -2.061330 12.512090 1.522068 -25.562358 1.906574 5.373129 -51.628294 -0.265831 20.728619 -159.691104 -78.578892 176.047961 12.543571 -5.572445 -30.055585 22.883100 1.179076 5.956060 50.648809 5.087363 22.407352 161.098029 85.657836 166.666492 3.381204 10.702146 -41.608574 
0.215366 0.266789 0.969967 -103.374891 -0.550089 84.622970 11.130278 0.389304 -6.873277 -7.155282 4.721648 31.462325 0.228393 8.219449 -15.480827 0.000000 -0.000000 0.000000 -9.337317 -3.695497 -4.409753 2.809393 -5.445920 21.700325 0.979830 -2.896520 -18.721518 0.000000 -0.000000 0.000000 0.035222 2.352045 6.434354 -0.103573 0.439288 9.100601 -0.284199 -0.741518 1.175367 -0.120342 9.917425 -0.012121 -1.415831 10.192630 1.886868 -25.800200 1.588913 5.067802 -52.707474 -0.645211 20.534936 -168.555439 -79.644617 -174.039357 11.821466 -5.064396 -30.384507 22.576167 3.165821 5.955943 49.110193 7.317174 21.916818 151.147997 86.945830 156.822969 3.750430 10.554126 -42.103021 
0.219214 0.251907 0.958249 -107.539520 -1.561271 83.309420 10.446485 -1.669219 -9.979685 -9.039248 1.883373 42.186661 1.007905 7.498740 -16.631680 0.000000 -0.000000 0.000000 -11.874086 -3.382496 -10.209047 3.169420 -4.032169 32.243753 1.167637 -0.340616 -20.814936 0.000000 -0.000000 0.000000 0.681706 2.742193 9.188099 -0.693270 1.927195 8.579954 -0.924544 0.336368 0.834386 -0.633777 8.406647 1.042530 -0.889828 7.752585 2.275545 -25.849366 0.694065 4.042877 -54.742914 -1.864416 20.461612 175.076748 -79.410175 -157.131832 13.170149 -3.794213 -29.917999 22.276568 6.295071 5.860270 46.922554 11.053404 20.913348 141.826897 87.880860 146.510132 2.907526 10.024267 -42.731356 
0.222042 0.236199 0.941780 -110.906342 -2.361548 82.282880 9.846658 -3.742481 -12.219809 -10.814925 0.663223 50.573812 1.633075 5.912570 -15.998992 0.000000 -0.000000 0.000000 -14.444437 -2.800582 -14.750830 4.639028 -2.749847 39.873970 1.172953 1.699786 -21.661658 0.000000 -0.000000 0.000000 1.481157 3.357072 11.271433 -0.844136 2.959221 9.037697 -1.175786 1.309803 -0.645400 -1.503397 3.356892 2.882622 1.368727 7.706039 4.119063 -25.975160 -2.461610 3.239377 -56.805015 -2.800055 20.273635 162.668299 -77.359191 -142.089779 15.587235 -3.411135 -29.293994 21.504229 9.888932 6.273125 44.601513 12.408403 15.920461 151.947840 85.968854 157.060176 6.228239 13.117664 -44.841848 
0.224781 0.219792 0.920865 -114.197330 -3.332703 81.038833 9.654245 -3.934240 -13.482094 -12.931615 -0.128543 57.594046 1.429785 3.466052 -16.821970 0.000000 -0.000000 0.000000 -16.375163 -3.383355 -19.498931 4.995725 -0.775525 47.675728 2.011508 4.678903 -22.405031 0.000000 -0.000000 0.000000 1.521147 4.361781 14.085780 -0.569339 3.947267 7.833595 -1.208649 1.909627 -0.335671 -1.126076 2.377307 3.892318 1.425779 5.669749 5.934443 -24.968655 -5.102386 1.253381 -58.550124 -6.502593 21.589095 159.250839 -75.493513 -138.448239 19.322709 -2.331211 -27.029376 20.580568 11.781536 4.435860 43.961713 14.211008 14.947099 -161.690517 83.776085 -156.715697 5.387816 13.276381 -43.698945 
0.226965 0.201891 0.900616 -116.538394 -3.805021 80.154050 9.397322 -3.944993 -13.979830 -14.550775 -1.421241 61.866116 0.502325 1.002445 -18.655669 0.000000 -0.000000 0.000000 -17.745440 -3.365432 -22.260255 4.828372 0.040792 51.633755 2.136391 6.785928 -24.443198 0.000000 -0.000000 0.000000 0.711605 4.772719 15.876934 0.460614 3.318781 7.215163 -0.719523 1.873063 0.087719 0.486903 2.897319 4.399159 1.039506 2.964537 8.579371 -23.403608 -7.881795 -0.325949 -60.211931 -11.790929 22.487664 155.766284 -74.018010 -133.052765 19.730001 -2.871772 -26.146049 20.172198 12.918442 2.776525 43.827079 17.600216 13.475070 -140.425812 79.704513 -133.194947 5.418715 13.025132 -43.843496 
